<svg xmlns="http://www.w3.org/2000/svg" viewBox="0 0 203.65 296.36" class="icon adjustables"><title>Adjustables</title><g data-name="Layer 2"><g data-name="Layer 1"><g id="_4MysNV.tif" data-name="4MysNV.tif"><path d="M157.38,208.41c0-25.67,0-51.33.06-77,0-2.22-.65-3.12-2.75-3.83-15.37-5.2-25.12-19.19-25-35.68a36.78,36.78,0,0,1,25.42-34.41c1.82-.6,2.38-1.42,2.37-3.32-.08-14.42-.06-28.83,0-43.25,0-5.54,1.91-8.67,6.18-10.35a9.17,9.17,0,0,1,12.11,7,28.39,28.39,0,0,1,.2,4c0,14.17.05,28.33,0,42.5,0,2,.62,2.83,2.53,3.45A36.7,36.7,0,0,1,203.65,92c.1,16.3-9.68,30.37-24.92,35.49-2.41.81-2.89,1.95-2.89,4.24q.09,76.75.07,153.49c0,4.32-1.07,7.86-5.14,10a9.12,9.12,0,0,1-13.11-6.39,27.13,27.13,0,0,1-.28-4.48Q157.36,246.41,157.38,208.41Z"/><path d="M27.69,167.76v-3.33q0-76.87,0-153.74C27.66,6.39,29.08,3,33,1A9.11,9.11,0,0,1,46.1,8.08a31.89,31.89,0,0,1,.09,3.5q0,76.75,0,153.49c0,2.08.58,2.93,2.61,3.6a36.95,36.95,0,0,1-.19,70.21c-2,.66-2.42,1.59-2.41,3.5.07,14.58,0,29.16,0,43.75,0,2.75-.47,5.31-2.55,7.31-3,2.87-6.44,3.77-10.31,2.1a8.91,8.91,0,0,1-5.62-8.69c-.08-7.83,0-15.67,0-23.5,0-7.17,0-14.33,0-21.5,0-1.53-.31-2.32-1.91-2.84C10,233.79,0,219.95,0,203.64s10.16-30,25.76-35.18C26.38,168.25,27,168,27.69,167.76Z"/></g></g></g></svg>
