<svg xmlns="http://www.w3.org/2000/svg" viewBox="0 0 453.14 453.14" class="icon arrow"><title>Arrow</title><g data-name="Layer 2"><g data-name="Layer 1"><path d="M226.57,0C101.44,0,0,101.44,0,226.57S101.44,453.14,226.57,453.14,453.14,351.7,453.14,226.57,351.7,0,226.57,0ZM356.7,292c-11.38,9.88-28.94,9.05-40.16-2Q299.2,272.85,282,255.55c-18.28-18.48-36.47-37.05-55.06-56-1.28,1.48-1.84,2.21-2.49,2.86q-43.54,43.59-87.1,87.17c-11.36,11.35-27.57,12.71-40,3.45C84,283,81.81,263,92.78,250.26c.87-1,1.79-2,2.73-2.92q54.7-54.71,109.35-109.46a30.33,30.33,0,0,1,37.53-4.64,39.14,39.14,0,0,1,6.56,5.36Q303.58,193,358.13,247.51C371,260.37,370.33,280.14,356.7,292Z"/></g></g></svg>
