<svg xmlns="http://www.w3.org/2000/svg" viewBox="0 0 142.24 162.89" class="icon bell"><title>Bell</title><g data-name="Layer 2"><g data-name="Layer 1"><g ><path d="M71.08,136.19q-29.24,0-58.47,0c-6.06,0-10.38-3.1-12.1-8.55a11.85,11.85,0,0,1,9.38-14.95c.74-.11,1.49-.18,2.23-.3,4-.64,5.75-2.58,5.76-6.75,0-11.24.07-22.49,0-33.73q-.16-23.5,16.78-39.7A49,49,0,0,1,55.36,20.14c1.88-.53,2.72-1.28,2.58-3.4-.3-4.27-.06-8.43,3-12A13.3,13.3,0,0,1,84.4,12.34c.14,2.3-.55,5.15.56,6.75s4,1.53,6.07,2.42c18.74,8.27,30.17,22.34,32.82,42.79.93,7.22.48,14.62.57,21.94.07,5.91,0,11.83,0,17.74,0,6.52,1.17,7.86,7.55,8.66a11.8,11.8,0,0,1-1.69,23.5c-11.33.1-22.66,0-34,0Z"/><path d="M50.36,142.33H91.89c-.3,6.6-2.8,12-7.94,16.1a20.5,20.5,0,0,1-23.17,1.63C54.07,156.13,50.86,150.13,50.36,142.33Z"/></g></g></g></svg>
