<svg xmlns="http://www.w3.org/2000/svg" viewBox="0 0 268.14 210.81" class="icon check-mark"><title>Check Mark</title><g data-name="Layer 2"><g data-name="Layer 1"><g><path d="M103.86,114.91c1.08-1.33,1.59-2.11,2.24-2.75Q161,57.15,216,2.16c2.86-2.86,9.43-2.88,12.26,0,12,12.05,23.88,24.19,36,36.09,2.77,2.72,4.22,5.39,3.85,9.31a7.57,7.57,0,0,1-2.15,5.23Q187.92,130.63,110,208.6c-2.92,2.92-9.34,3-12.22.07Q50,160.86,2.14,113.09a7.14,7.14,0,0,1-2.06-4.77c-.46-4.14,1.16-6.9,4.08-9.73,12.27-11.88,24.31-24,36.38-36.08a5.94,5.94,0,0,1,3.92-1.65C48.8,60.34,51.8,62,54.87,65.1c15.5,15.84,31.27,31.42,46.92,47.1A29.62,29.62,0,0,1,103.86,114.91Z"/></g></g></g></svg>
