<svg xmlns="http://www.w3.org/2000/svg" viewBox="0 0 266.69 266.69" class="icon cog"><title>Cog</title><g data-name="Layer 2"><g data-name="Layer 1"><path d="M164.37,266.6c-4.47.17-8.68-1.71-12.7-3.9-12.26-6.68-24.4-6.53-36.72-.06a37.66,37.66,0,0,1-10.73,3.79c-6.93,1.23-12.24-2.11-16.48-7.33a45.21,45.21,0,0,1-3.43-4.92c-7.15-11.68-17.67-17.44-31.23-18a45,45,0,0,1-7.93-.87c-8.83-2-13.9-8.69-14.5-18.26a78.1,78.1,0,0,0-1.82-13.8c-2-8.08-7-14.26-13.7-19-2-1.44-4.1-2.85-6.16-4.26-8.9-6.08-11.26-15.1-6.64-24.9a97.42,97.42,0,0,0,5.26-12.37c2.64-8.47,1.45-16.75-2.21-24.75-1.49-3.25-3.12-6.45-4.29-9.81-3.28-9.4,1.34-16.76,7.3-21C11.46,85,14.64,83,17.54,80.61c7.82-6.38,12-14.71,12.74-24.78A71.4,71.4,0,0,1,31.8,44c1.9-7.55,7.8-12.18,15.61-13,6-.63,12.11-.61,18-2.74A35.56,35.56,0,0,0,82.67,14.93c1.53-2.18,3-4.44,4.49-6.61C93,.07,102.24-2.11,111.44,2.19a107.91,107.91,0,0,0,15,5.9c7.61,2.25,15,.51,22.1-2.59C151,4.44,153.35,3.16,155.77,2,164.86-2.21,174,.29,179.7,8.54c1.89,2.74,3.69,5.55,5.72,8.19,7.23,9.4,17.14,13.31,28.67,13.86a43.47,43.47,0,0,1,7.44.76c8.11,1.83,13.26,7.73,14.21,16,.5,4.38.68,8.81,1.43,13.14,1.62,9.33,6.8,16.48,14.32,22,2.21,1.63,4.57,3.05,6.81,4.64,8.12,5.75,10.41,14.12,6.51,23.29-2.14,5-4.57,10-6.12,15.24-2.35,7.92-.87,15.66,2.61,23,1.17,2.49,2.4,4.94,3.5,7.46,4,9.15,1.63,17.5-6.51,23.27-2.78,2-5.7,3.79-8.37,5.9-9.22,7.32-13.28,17.09-13.84,28.71a35,35,0,0,1-2.46,11.84c-3.26,7.63-10.18,9.76-17.81,10.12-5.94.28-11.75,1-17.27,3.43-6.14,2.71-10.79,7.11-14.68,12.44-2.2,3-4.19,6.24-6.65,9A15.61,15.61,0,0,1,164.37,266.6Zm-77.5-54.35c3.53,0,5.49-2.35,7.23-5L185.46,68a21.64,21.64,0,0,0,1.76-3A7.61,7.61,0,0,0,181,54.45c-4-.45-6.3,1.71-8.3,4.77q-31.4,47.94-62.88,95.83-14.73,22.44-29.47,44.88c-1.81,2.74-2.19,5.56-.57,8.47A7.36,7.36,0,0,0,86.87,212.26Zm92.29-19.48a25,25,0,1,0-25-25.14A24.78,24.78,0,0,0,179.16,192.78Zm-92.08-69c13.75.36,24.81-10.32,25.29-24.44.47-13.8-10.41-25.08-24.55-25.46A24.9,24.9,0,0,0,62.48,98.59C62.21,112.27,73.09,123.4,87.08,123.77Z"/></g></g></svg>
