<svg xmlns="http://www.w3.org/2000/svg" viewBox="0 0 266.03 237.64" class="icon computer"><title>Computer</title><g data-name="Layer 2"><g data-name="Layer 1"><g ><path d="M146.21,65.8c-.71.79-1.16,1.35-1.66,1.85-5.65,5.66-11.26,11.36-17,16.92a5.77,5.77,0,0,1-3.63,1.49c-25.25.08-50.49.06-75.74.06H45.05V189.65H202.76v-2.84q0-33.62,0-67.24a5.47,5.47,0,0,1,1.82-4.35c6.11-5.9,12.12-11.88,18.54-18.2,0,1.13,0,2,0,3q.08,46.74.13,93.48a6.22,6.22,0,0,0,1.88,4.62c6.56,7,13,14,19.52,21.09,4.05,4.41,4.85,8.56,2.59,13-1.76,3.42-4.72,5-8.39,5.48a13.73,13.73,0,0,1-1.75,0H11.34c-6.55,0-10.58-3.37-11.28-9.55a9.71,9.71,0,0,1,2.8-7.74c5.85-6.5,11.61-13.09,17.73-19.33,3.1-3.17,4.86-6.4,4-10.87a20.82,20.82,0,0,1-.17-4q0-48.87,0-97.73c0-5.53,1.07-10.76,4.6-15.23,4.14-5.24,9.84-7.42,16.22-7.44,33.24-.11,66.49-.05,99.73-.05C145.24,65.7,145.55,65.75,146.21,65.8ZM24.35,217.69H27.6q31.61,0,63.21,0c2.32,0,5.15.67,6.82-.4,1.5-1,1.89-3.86,2.47-6,.41-1.49,1.21-1.7,2.53-1.68,4.5.06,9,0,13.49,0h31.54c.73,2.13,1.53,4.13,2.1,6.19a2.25,2.25,0,0,0,2.61,1.9q34.73-.07,69.46,0a20.13,20.13,0,0,0,2.13-.26c-4.16-4.45-8.18-8.46-11.83-12.77-2.45-2.89-5.25-3.84-8.93-3.83-25.65.1-51.3.06-77,.06q-41.35,0-82.7,0a8.52,8.52,0,0,0-7.15,3.2c-3,3.64-6.35,7.05-9.53,10.58C26.11,215.45,25.44,216.36,24.35,217.69Z"/><path d="M239,68.39,197.4,27c5-4.94,9.95-9.93,14.95-14.91,3.48-3.47,7-6.94,10.48-10.37,2.28-2.23,4-2.26,6.22,0Q246.75,19.31,264.4,37c2.07,2.08,2.18,3.94.26,5.87C256.12,51.42,247.54,59.91,239,68.39Z"/><path d="M119.38,105.63,194.2,30.81,205.33,41.9l-74.85,74.85Z"/><path d="M235.42,72l-74.64,74.65-11.33-11.39,74.61-74.61Z"/><path d="M156.16,149.94q-22.37,4.49-44.85,9a3.46,3.46,0,0,1-4.29-4q4.44-22.47,9-44.92c0-.13.22-.22.09-.09Z"/></g></g></g></svg>
