<svg xmlns="http://www.w3.org/2000/svg" viewBox="0 0 114.22 79.18" class="icon envelope"><title>Envelope</title><g data-name="Layer 2"><g data-name="Layer 1"><g ><path d="M.08,7.66c2.1,1.93,4,3.66,5.88,5.41l41.6,38.5c5.75,5.32,13.23,5.37,19,.06q22.87-21.1,45.71-42.24c.54-.5,1.09-1,1.84-1.65.05.71.12,1.21.12,1.7q0,30.07,0,60.14c0,4.89-2.34,8.11-6.71,9.26a12.1,12.1,0,0,1-3.05.29q-47.36,0-94.72,0c-5.2,0-8.57-3.05-9.36-6.61a14.41,14.41,0,0,1-.36-3q0-30,0-60C0,9,0,8.46.08,7.66Z"/><path d="M5.71.48A38.64,38.64,0,0,1,9.91,0Q51,0,92,0c4.24,0,8.48,0,12.72,0a36.24,36.24,0,0,1,4,.51c-.4.45-.56.66-.75.84L60.75,45c-.18.17-.36.34-.55.5-2.31,2-4.06,2-6.31-.1q-4.55-4.17-9.07-8.38L6.56,1.68,5.66.87Z"/></g></g></g></svg>
