<svg xmlns="http://www.w3.org/2000/svg" viewBox="0 0 281.4 239.65" class="icon house"><title>House</title><g data-name="Layer 2"><g data-name="Layer 1"><g ><path d="M236.44,122.94v3.52q0,45.5,0,91c0,10.66-6,18.81-15.7,21.41a21.67,21.67,0,0,1-5.4.74q-16,.1-32,0c-6.66,0-11.4-3.32-13-9.17a20.91,20.91,0,0,1-.55-5.43q-.06-24.5,0-49c0-7.17-2.67-12.88-9.28-16.09a18.57,18.57,0,0,0-7.43-1.72c-8.16-.21-16.33-.16-24.5-.06A16.26,16.26,0,0,0,112,174.85c-.06,16.83,0,33.67,0,50.5,0,9.08-5.17,14.28-14.22,14.29-10.42,0-20.83-.06-31.25,0-11.48.09-20.87-9.41-21.14-19.77,0-1.33-.13-2.66-.13-4q0-44.62,0-89.25v-3.89c-1.1.86-1.78,1.35-2.42,1.9-4.26,3.61-8.48,7.25-12.77,10.82-6.11,5.09-14.5,6.37-20.48,3.21C-1.64,132.74-3.34,118,6.28,109.49c5.36-4.75,10.85-9.35,16.29-14l84.69-72.44c7-6,14-12.05,21.08-18,7.73-6.58,16.79-6.72,24.5-.15q34.54,29.41,69,59c17.09,14.62,34.13,29.29,51.27,43.83,4.94,4.19,8.46,9,8.32,15.72s-3.19,12.11-9.23,15.21-12.36,3.17-18-.93c-5.1-3.73-9.77-8-14.62-12.1Z"/></g></g></g></svg>
