<svg xmlns="http://www.w3.org/2000/svg" viewBox="0 0 103.26 103.26" class="icon magnify-glass"><title>Magnify Glass</title><g data-name="Layer 2"><g data-name="Layer 1"><path d="M47.76,28.21A18.91,18.91,0,1,0,66.57,47.14,18.94,18.94,0,0,0,47.76,28.21Z"/><path d="M76.52,0H26.74A26.74,26.74,0,0,0,0,26.74V76.52a26.74,26.74,0,0,0,26.74,26.74H76.52a26.74,26.74,0,0,0,26.74-26.74V26.74A26.74,26.74,0,0,0,76.52,0Zm2.12,84.21a5.25,5.25,0,0,1-3.07-1.62L63.89,70.91c-.16-.16-.29-.34-.42-.5a28,28,0,1,1,6.69-6.3L74,68l8,8a5.31,5.31,0,0,1,1.62,3.19A4.64,4.64,0,0,1,78.64,84.21Z"/></g></g></svg>
