<svg xmlns="http://www.w3.org/2000/svg" viewBox="0 0 511.995 511.995" class="icon palette"><title>Palette</title><g data-name="Layer 1"><g data-name="Layer 2">
	<g>
		<path d="M281.273,165.289c-1.501-8.991-6.406-16.856-13.828-22.154c-7.413-5.306-16.472-7.396-25.438-5.886    c-8.991,1.493-16.856,6.406-22.154,13.828c-5.297,7.422-7.387,16.455-5.886,25.446c1.501,8.991,6.406,16.856,13.828,22.154    c5.852,4.18,12.702,6.364,19.748,6.364c1.894,0,3.788-0.162,5.69-0.478c8.991-1.493,16.856-6.406,22.154-13.828    C280.685,183.314,282.775,174.28,281.273,165.289z M261.517,180.823c-2.653,3.711-6.577,6.159-11.081,6.91    c-4.513,0.734-9.025-0.299-12.719-2.943c-3.711-2.653-6.168-6.577-6.918-11.073c-0.751-4.496,0.29-9.017,2.943-12.727    s6.586-6.159,11.081-6.91c4.496-0.759,9.017,0.299,12.719,2.943c3.702,2.644,6.168,6.577,6.918,11.073    C265.21,172.591,264.17,177.112,261.517,180.823z"></path>
	</g>
</g><g>
	<g>
		<path d="M177.133,158.737c-6.714-17.564-26.479-26.393-44.043-19.697c-17.573,6.714-26.41,26.47-19.705,44.043    c5.187,13.581,18.17,21.94,31.913,21.94c4.043,0,8.138-0.717,12.13-2.244C175,196.067,183.838,176.31,177.133,158.737z     M151.354,186.845c-8.821,3.352-18.665-1.066-22.017-9.853c-3.361-8.786,1.058-18.656,9.836-22.017    c1.996-0.759,4.052-1.117,6.065-1.117c6.876,0,13.359,4.18,15.952,10.97C164.542,173.606,160.132,183.484,151.354,186.845z"></path>
	</g>
</g><g>
	<g>
		<path d="M134.481,252.573c-6.714-17.573-26.479-26.41-44.043-19.697s-26.41,26.47-19.705,44.043    c5.187,13.581,18.17,21.94,31.913,21.94c4.043,0,8.147-0.725,12.13-2.244C132.348,289.902,141.186,270.146,134.481,252.573z     M108.693,280.681c-8.812,3.361-18.665-1.066-22.017-9.853c-3.361-8.786,1.058-18.656,9.836-22.017    c1.996-0.759,4.052-1.117,6.065-1.117c6.876,0,13.359,4.18,15.952,10.97C121.89,267.441,117.471,277.32,108.693,280.681z"></path>
	</g>
</g><g>
	<g>
		<path d="M160.072,354.939c-6.714-17.564-26.47-26.402-44.043-19.697c-17.573,6.713-26.41,26.47-19.705,44.043    c5.187,13.581,18.17,21.94,31.913,21.94c4.043,0,8.138-0.717,12.13-2.244C157.939,392.268,166.777,372.512,160.072,354.939z     M134.293,383.047c-8.821,3.37-18.665-1.066-22.017-9.853s1.058-18.656,9.836-22.017c1.996-0.759,4.052-1.117,6.065-1.117    c6.876,0,13.359,4.18,15.952,10.97C147.481,369.807,143.071,379.686,134.293,383.047z"></path>
	</g>
</g><g>
	<g>
		<path d="M510.078,55.868c2.789-3.438,2.508-8.437-0.665-11.516l-25.139-24.448c-3.131-3.045-8.053-3.224-11.397-0.452    L365.06,108.928c-11.968,8.983-23.007,19.074-33.243,29.942c-4.555-2.815-9.102-5.681-13.811-8.258    C202.255,67.111,67.849,88.864,18.381,179.074c-49.485,90.218,4.41,215.258,120.135,278.742    c44.529,24.423,92.334,36.69,137.307,36.69c42.055,0,81.603-10.731,113.635-32.288c2.661-1.791,4.095-4.939,3.702-8.13    c-0.392-3.19-2.559-5.886-5.579-6.978l-21.386-7.669c-21.403-11.081-35.879-31.938-38.763-55.9    c-3.608-29.976,11.252-58.553,37.875-72.808l2.167-1.16c23.484-12.574,52.599-13.811,72.449-3.079    c0.179,0.094,0.367,0.085,0.546,0.162c0.623,0.282,1.262,0.461,1.945,0.589c0.384,0.068,0.751,0.179,1.135,0.196    c0.145,0.009,0.281,0.077,0.427,0.077c0.606,0,1.237-0.06,1.851-0.196c0.102-0.026,0.179-0.094,0.281-0.128    c0.606-0.154,1.135-0.469,1.698-0.751c0.435-0.222,0.904-0.384,1.288-0.674c0.401-0.307,0.699-0.725,1.049-1.1    c0.409-0.452,0.844-0.862,1.152-1.39c0.051-0.094,0.145-0.145,0.196-0.239c0.196-0.367,0.213-0.776,0.35-1.152    c0.213-0.572,0.444-1.117,0.529-1.723c0.085-0.614,0.017-1.194-0.034-1.8c-0.026-0.409,0.068-0.802-0.026-1.211    c-0.043-0.196-0.111-0.401-0.154-0.597c-8.147-36.297-27.067-71.682-54.749-102.895c5.835-6.415,11.337-13.069,16.404-19.902    L510.078,55.868z M431.367,285.134c-22.563-5.937-49.119-2.824-71.955,9.401l-2.167,1.169    c-32.868,17.59-51.217,52.872-46.764,89.886c3.591,29.797,21.702,55.704,48.445,69.302c0.316,0.162,0.648,0.307,0.981,0.427    l4.871,1.749c-60.396,31.469-143.841,26.504-218.065-14.212C39.238,383.9-11.63,269.25,33.343,187.28    c44.964-81.961,168.972-100.677,276.465-41.714c3.591,1.971,7.029,4.18,10.535,6.304c-2.457,2.986-4.973,5.929-7.302,9.017    c-0.196,0.264-0.375,0.529-0.537,0.81l-45.502,77.534c-15.943-0.384-34.207,7.899-49.477,22.452    c-24.679,23.502-20.959,68.432-20.797,70.334c0.333,3.719,3.037,6.79,6.688,7.584c0.776,0.171,9.153,1.919,20.431,1.919    c14.766,0,34.506-3.003,48.649-16.481c17.675-16.839,27.067-37.79,26.223-54.988l80.92-58.707    c0.264-0.188,0.512-0.392,0.751-0.606c1.723-1.578,3.387-3.242,5.067-4.862C406.91,230.3,422.572,257.299,431.367,285.134z     M296.577,222.528l15.705,16.609l-18.887,13.7c-0.657-0.99-1.331-1.971-2.107-2.883c-2.064-2.44-4.581-4.351-7.285-5.988    L296.577,222.528z M226.943,276.782c0.776-0.913,1.467-1.902,2.337-2.73c12.164-11.584,26.897-18.383,38.063-17.795    c4.803,0.256,8.488,1.851,10.927,4.734c7.754,9.162,2.457,32.646-17.547,51.712c-0.759,0.717-1.646,1.262-2.465,1.902    l-2.133-24.994c-0.307-3.685-2.969-6.748-6.568-7.584L226.943,276.782z M241.803,322.412c-10.603,2.619-21.565,2.192-28.287,1.476    c0-7.456,0.734-20.013,4.751-31.605l21.386,4.965L241.803,322.412z M369.223,197.833l-43.019,31.213l-20.635-21.83l21.386-36.451    c13.802-18.255,30.07-34.472,48.675-48.453l102.246-84.836l14.041,13.649l-91.566,112.15    C391.103,175.73,380.628,187.357,369.223,197.833z"></path>
	</g>
</g><g>
	<g>
		<path d="M254.283,415.684c-6.142-17.778-25.6-27.246-43.386-21.104c-17.786,6.151-27.246,25.609-21.113,43.386    c4.871,14.101,18.136,22.973,32.279,22.973c3.685,0,7.43-0.606,11.107-1.868C250.956,452.92,260.416,433.462,254.283,415.684z     M227.608,442.948c-8.923,3.054-18.631-1.663-21.693-10.552c-3.071-8.889,1.655-18.622,10.544-21.685    c1.843-0.631,3.719-0.938,5.553-0.938c7.072,0,13.7,4.436,16.14,11.491C241.231,430.143,236.497,439.868,227.608,442.948z"></path>
	</g>
</g></g> </svg>