<?xml version="1.0" standalone="no"?>
<!DOCTYPE svg PUBLIC "-//W3C//DTD SVG 20010904//EN"
 "http://www.w3.org/TR/2001/REC-SVG-20010904/DTD/svg10.dtd">
<svg version="1.0" xmlns="http://www.w3.org/2000/svg"
 width="496.000000pt" height="440.000000pt" viewBox="0 0 496.000000 440.000000"
 preserveAspectRatio="xMidYMid meet">
<title>Teefury Bird</title>
<g transform="translate(0.000000,440.000000) scale(0.100000,-0.100000)"
fill="#000000" stroke="none">
<path d="M3274 4325 c-222 -39 -389 -120 -547 -265 -92 -85 -151 -164 -199
-268 -69 -151 -80 -206 -85 -469 l-6 -233 -186 0 c-318 0 -436 -24 -891 -179
-162 -56 -322 -108 -355 -115 -33 -8 -148 -17 -255 -21 l-195 -7 -179 61
c-256 87 -305 84 -347 -19 -38 -95 2 -336 95 -573 218 -557 603 -998 1069
-1228 133 -65 302 -126 415 -150 l52 -11 0 -399 0 -400 396 3 396 3 29 33 c41
46 41 111 0 153 l-29 29 -276 0 -276 0 0 274 0 274 128 7 c232 12 408 46 572
110 323 124 581 335 719 586 114 210 150 443 103 674 -11 55 -18 103 -16 107
2 3 35 9 72 13 37 4 117 15 178 26 409 68 828 327 1142 707 85 103 135 201
135 268 0 109 -82 233 -298 450 -297 297 -607 480 -935 550 -106 22 -325 27
-426 9z m136 -286 c85 -14 147 -42 161 -73 15 -31 3 -74 -84 -318 l-63 -176
29 -6 c16 -3 64 -6 105 -6 l76 0 -64 -66 c-102 -104 -382 -365 -387 -361 -2 2
17 62 43 133 25 71 48 137 51 147 5 15 -3 17 -65 17 -39 0 -77 2 -85 6 -15 5
-1 49 127 388 31 82 54 151 51 154 -9 10 -121 -19 -172 -44 -61 -30 -142 -100
-183 -159 -16 -23 -38 -71 -50 -106 -19 -55 -22 -80 -18 -174 5 -140 29 -197
123 -295 119 -123 226 -157 417 -132 100 13 157 41 233 116 105 103 154 234
142 374 -8 92 -30 148 -93 244 -30 44 -54 91 -54 103 0 27 51 85 74 85 27 0
108 -83 149 -152 59 -99 87 -201 87 -315 0 -179 -58 -321 -180 -443 -146 -146
-320 -206 -524 -180 -111 14 -213 55 -299 120 -99 75 -165 167 -215 298 -23
59 -26 82 -26 197 0 111 3 140 22 195 80 224 284 397 506 430 75 11 94 11 166
-1z"/>
</g>
</svg>
